<svg xmlns="http://www.w3.org/2000/svg" width="24" height="24" viewBox="0 0 20 20" fill="none">
    <circle cx="10" cy="10" r="10" fill="#FA9600"/>
    <path d="M14.667 6H5.333c-.4 0-.666.267-.666.667V14c0 .4.266.667.666.667h9.334c.4 0 .666-.267.666-.667V6.667c0-.4-.266-.667-.666-.667zm-3.934 4.733c-.2.134-.466.2-.733.2-.267 0-.533-.066-.733-.2L6.133 8.467c-.266-.2-.333-.6-.133-.934.2-.266.6-.4.933-.133L10 9.6l3.067-2.2c.266-.2.733-.133.933.133.2.267.133.734-.133.934l-3.134 2.266z"
          fill="#fff"/>
</svg>
